<svg width="206" height="155" viewBox="0 0 206 155" fill="none" xmlns="http://www.w3.org/2000/svg">
<mask id="mask0_14_358" style="mask-type:alpha" maskUnits="userSpaceOnUse" x="0" y="0" width="206" height="155">
<g clip-path="url(#clip0_14_358)">
<path d="M44.0605 57.1184V47.6555C44.0605 47.6555 44.0605 44.016 48.4353 41.8322L97.2056 12.7156C97.2056 12.7156 102.301 10.823 106.669 12.7156L159.086 42.5601C159.086 42.5601 162.434 44.7439 161.997 49.1114V105.889C161.997 105.889 161.124 110.547 157.63 112.44L107.396 142.285C107.396 142.285 106.377 144.177 98.6615 143.012L46.2443 112.44C46.2443 112.44 44.3517 111.421 44.0605 105.889V57.1184Z" fill="black"/>
</g>
</mask>
<g mask="url(#mask0_14_358)">
<rect width="206" height="155" fill="#ECF2FC"/>
<g clip-path="url(#clip1_14_358)">
<path d="M127.668 53.3008C127.238 52.793 126.74 52.4121 126.174 52.1582C125.607 51.9043 124.992 51.7773 124.328 51.7773H120.168V50.4297C120.168 49.6094 119.875 48.916 119.289 48.3496C118.703 47.7832 118.02 47.5 117.238 47.5H88.7617C87.9805 47.5 87.2969 47.7832 86.7109 48.3496C86.125 48.916 85.832 49.6094 85.832 50.4297V51.7773H81.6719C81.0078 51.7773 80.3926 51.9043 79.8262 52.1582C79.2598 52.4121 78.7617 52.793 78.332 53.3008C77.9414 53.7695 77.6582 54.3066 77.4824 54.9121C77.3066 55.5176 77.2773 56.1328 77.3945 56.7578C77.668 58.4375 78.1172 60.0781 78.7422 61.6797C79.4062 63.2422 80.2266 64.707 81.2031 66.0742C82.1797 67.4414 83.3125 68.7109 84.6016 69.8828C85.8906 71.0156 87.2773 71.9922 88.7617 72.8125C89.0352 73.4766 89.3281 74.1211 89.6406 74.7461C89.9531 75.3711 90.2852 75.9766 90.6367 76.5625C91.7695 78.4375 93.0195 80.0098 94.3867 81.2793C95.7539 82.5488 97.1992 83.4961 98.7227 84.1211C98.8789 85.6836 98.4883 87.1191 97.5508 88.4277C96.6133 89.7363 95.3633 90.5664 93.8008 90.918C93.4883 90.9961 93.2344 91.1621 93.0391 91.416C92.8438 91.6699 92.7461 91.9531 92.7461 92.2656V98.6523H90.168C88.9961 98.6523 88 99.0625 87.1797 99.8828C86.3594 100.703 85.9492 101.68 85.9492 102.812V106.094C85.9492 106.484 86.0859 106.816 86.3594 107.09C86.6328 107.363 86.9648 107.5 87.3555 107.5H118.762C119.152 107.5 119.484 107.363 119.758 107.09C120.031 106.816 120.168 106.484 120.168 106.094V102.812C120.168 101.68 119.758 100.703 118.938 99.8828C118.117 99.0625 117.141 98.6523 116.008 98.6523H113.43V92.2656C113.43 91.9531 113.322 91.6699 113.107 91.416C112.893 91.1621 112.648 90.9961 112.375 90.918C112.336 90.918 112.316 90.918 112.316 90.918C110.754 90.5664 109.504 89.7363 108.566 88.4277C107.629 87.1191 107.258 85.6641 107.453 84.0625C108.938 83.4375 110.354 82.4902 111.701 81.2207C113.049 79.9512 114.27 78.3984 115.363 76.5625C115.715 75.9766 116.047 75.3711 116.359 74.7461C116.672 74.1211 116.965 73.4766 117.238 72.8125C118.723 71.9922 120.109 71.0156 121.398 69.8828C122.688 68.7109 123.82 67.4414 124.797 66.0742C125.773 64.707 126.594 63.2422 127.258 61.6797C127.883 60.0781 128.332 58.4375 128.605 56.7578C128.723 56.1328 128.693 55.5176 128.518 54.9121C128.342 54.3066 128.059 53.7695 127.668 53.3008ZM80.0898 56.2891C80.0508 56.0938 80.0605 55.8887 80.1191 55.6738C80.1777 55.459 80.2852 55.2539 80.4414 55.0586C80.5977 54.9023 80.7832 54.7754 80.998 54.6777C81.2129 54.5801 81.4375 54.5312 81.6719 54.5312H85.832V57.1094C85.832 59.1016 85.959 61.0547 86.2129 62.9688C86.4668 64.8828 86.8281 66.7383 87.2969 68.5352C85.4219 67.0117 83.8496 65.1953 82.5801 63.0859C81.3105 60.9766 80.4805 58.7109 80.0898 56.2891ZM116.008 101.406C116.398 101.406 116.721 101.543 116.975 101.816C117.229 102.09 117.355 102.422 117.355 102.812V104.746H88.7617V102.812C88.7617 102.422 88.8984 102.09 89.1719 101.816C89.4453 101.543 89.7773 101.406 90.168 101.406H116.008ZM110.617 93.6719V98.6523H95.5V93.6719H110.617ZM99.1328 90.918C99.2891 90.7227 99.4453 90.5176 99.6016 90.3027C99.7578 90.0879 99.9141 89.8828 100.07 89.6875C100.539 88.9453 100.891 88.1738 101.125 87.373C101.359 86.5723 101.496 85.7422 101.535 84.8828C101.77 84.9219 102.014 84.9512 102.268 84.9707C102.521 84.9902 102.766 85 103 85C103.273 85 103.547 84.9902 103.82 84.9707C104.094 84.9512 104.367 84.9219 104.641 84.8828C104.641 86.0156 104.855 87.0996 105.285 88.1348C105.715 89.1699 106.281 90.0977 106.984 90.918H99.1328ZM117.355 57.1094C117.355 58.7891 117.258 60.4492 117.062 62.0898C116.906 63.7695 116.633 65.3711 116.242 66.8945C115.852 68.418 115.383 69.8633 114.836 71.2305C114.289 72.6367 113.664 73.9453 112.961 75.1562C111.594 77.4219 110.051 79.1699 108.332 80.4004C106.613 81.6309 104.836 82.2461 103 82.2461C101.164 82.2461 99.3867 81.6309 97.668 80.4004C95.9492 79.1699 94.4062 77.4219 93.0391 75.1562C92.3359 73.9453 91.7109 72.6367 91.1641 71.2305C90.6172 69.8633 90.1484 68.418 89.7578 66.8945C89.3672 65.3711 89.0938 63.7695 88.9375 62.0898C88.7422 60.4492 88.6445 58.7891 88.6445 57.1094V50.4297C88.6445 50.3906 88.6543 50.3516 88.6738 50.3125C88.6934 50.2734 88.7227 50.2539 88.7617 50.2539H117.238C117.277 50.2539 117.307 50.2734 117.326 50.3125C117.346 50.3516 117.355 50.3906 117.355 50.4297V57.1094ZM125.91 56.2891C125.52 58.7109 124.689 60.9766 123.42 63.0859C122.15 65.1953 120.578 67.0117 118.703 68.5352C119.172 66.7383 119.533 64.8828 119.787 62.9688C120.041 61.0547 120.168 59.1016 120.168 57.1094V54.5312H124.328C124.562 54.5312 124.787 54.5801 125.002 54.6777C125.217 54.7754 125.402 54.9023 125.559 55.0586C125.715 55.2539 125.822 55.459 125.881 55.6738C125.939 55.8887 125.949 56.0938 125.91 56.2891ZM111.438 61.7383C111.359 61.5039 111.213 61.2988 110.998 61.123C110.783 60.9473 110.559 60.8398 110.324 60.8008L106.105 60.2148L104.23 56.4062C104.113 56.1719 103.947 55.9863 103.732 55.8496C103.518 55.7129 103.273 55.6445 103 55.6445C102.727 55.6445 102.482 55.7129 102.268 55.8496C102.053 55.9863 101.887 56.1719 101.77 56.4062L99.8945 60.2148L95.6758 60.8008C95.4414 60.8398 95.2168 60.9473 95.002 61.123C94.7871 61.2988 94.6406 61.5039 94.5625 61.7383C94.4844 62.0117 94.4746 62.2754 94.5332 62.5293C94.5918 62.7832 94.7188 63.0078 94.9141 63.2031L97.9609 66.1328L97.2578 70.293C97.2188 70.5664 97.248 70.8203 97.3457 71.0547C97.4434 71.2891 97.5898 71.4844 97.7852 71.6406C98.0195 71.7969 98.2637 71.8848 98.5176 71.9043C98.7715 71.9238 99.0156 71.875 99.25 71.7578L103 69.8242L106.75 71.7578C106.867 71.8359 106.975 71.8848 107.072 71.9043C107.17 71.9238 107.277 71.9336 107.395 71.9336C107.551 71.9336 107.697 71.9141 107.834 71.875C107.971 71.8359 108.098 71.7578 108.215 71.6406C108.41 71.4844 108.557 71.2891 108.654 71.0547C108.752 70.8203 108.781 70.5664 108.742 70.293L108.039 66.1328L111.086 63.2031C111.281 63.0078 111.408 62.7832 111.467 62.5293C111.525 62.2754 111.516 62.0117 111.438 61.7383ZM105.578 64.668C105.422 64.8242 105.305 65.0098 105.227 65.2246C105.148 65.4395 105.129 65.6641 105.168 65.8984L105.578 68.0078L103.645 67.0117C103.527 66.9727 103.42 66.9336 103.322 66.8945C103.225 66.8555 103.117 66.8359 103 66.8359C102.883 66.8359 102.775 66.8555 102.678 66.8945C102.58 66.9336 102.473 66.9727 102.355 67.0117L100.422 68.0078L100.832 65.8984C100.871 65.6641 100.852 65.4395 100.773 65.2246C100.695 65.0098 100.578 64.8242 100.422 64.668L98.8984 63.1445L101.008 62.8516C101.242 62.8125 101.447 62.7246 101.623 62.5879C101.799 62.4512 101.945 62.2852 102.062 62.0898L103 60.1562L103.938 62.0898C104.055 62.2852 104.201 62.4512 104.377 62.5879C104.553 62.7246 104.758 62.8125 104.992 62.8516L107.102 63.1445L105.578 64.668Z" fill="#1F406C"/>
</g>
</g>
<defs>
<clipPath id="clip0_14_358">
<rect width="206" height="155" fill="white"/>
</clipPath>
<clipPath id="clip1_14_358">
<rect width="60" height="60" fill="white" transform="matrix(1 0 0 -1 73 107.5)"/>
</clipPath>
</defs>
</svg>
