<svg width="206" height="155" viewBox="0 0 206 155" fill="none" xmlns="http://www.w3.org/2000/svg">
<mask id="mask0_14_325" style="mask-type:alpha" maskUnits="userSpaceOnUse" x="0" y="0" width="206" height="155">
<g clip-path="url(#clip0_14_325)">
<path d="M44.0605 57.1184V47.6555C44.0605 47.6555 44.0605 44.016 48.4353 41.8322L97.2056 12.7156C97.2056 12.7156 102.301 10.823 106.669 12.7156L159.086 42.5601C159.086 42.5601 162.434 44.7439 161.997 49.1114V105.889C161.997 105.889 161.124 110.547 157.63 112.44L107.396 142.285C107.396 142.285 106.377 144.177 98.6615 143.012L46.2443 112.44C46.2443 112.44 44.3517 111.421 44.0605 105.889V57.1184Z" fill="black"/>
</g>
</mask>
<g mask="url(#mask0_14_325)">
<rect width="206" height="155" fill="#ECF2FC"/>
<g clip-path="url(#clip1_14_325)">
<path d="M85.8906 105.625L84.1328 103.164C83.9375 102.891 83.6738 102.725 83.3418 102.666C83.0098 102.607 82.7266 102.676 82.4922 102.871C82.2188 103.066 82.0527 103.32 81.9941 103.633C81.9355 103.945 82.0039 104.238 82.1992 104.512L83.957 107.031C84.0742 107.188 84.2207 107.305 84.3965 107.383C84.5723 107.461 84.7383 107.5 84.8945 107.5C85.0117 107.5 85.1289 107.48 85.2461 107.441C85.3633 107.402 85.4805 107.344 85.5977 107.266C85.8711 107.109 86.0273 106.865 86.0664 106.533C86.1055 106.201 86.0469 105.898 85.8906 105.625ZM99.3672 106.094L97.4922 96.9531C97.0234 94.7266 96.1543 92.6758 94.8848 90.8008C93.6152 88.9258 92.043 87.3633 90.168 86.1133L86.0664 83.3594C85.2461 82.8125 84.3379 82.5879 83.3418 82.6855C82.3457 82.7832 81.5156 83.1836 80.8516 83.8867V69.7656C80.8516 68.8281 80.5684 68.0078 80.002 67.3047C79.4355 66.6016 78.6836 66.1523 77.7461 65.957C77.1992 65.8008 76.6328 65.791 76.0469 65.9277C75.4609 66.0645 74.9336 66.3281 74.4648 66.7188C73.9961 67.0703 73.6348 67.5195 73.3809 68.0664C73.127 68.6133 73 69.1797 73 69.7656V87.9297C73 89.1016 73.1758 90.2539 73.5273 91.3867C73.8789 92.5195 74.4062 93.5742 75.1094 94.5508L77.2188 97.4805C77.3359 97.6367 77.4727 97.7539 77.6289 97.832C77.7852 97.9102 77.9609 97.9492 78.1562 97.9492C78.2734 97.9492 78.3906 97.9395 78.5078 97.9199C78.625 97.9004 78.7422 97.8516 78.8594 97.7734C79.0938 97.5781 79.2402 97.3242 79.2988 97.0117C79.3574 96.6992 79.2891 96.4062 79.0938 96.1328L77.043 93.2031C76.4961 92.4219 76.0762 91.582 75.7832 90.6836C75.4902 89.7852 75.3438 88.8672 75.3438 87.9297V69.7656C75.3438 69.5312 75.3926 69.3066 75.4902 69.0918C75.5879 68.877 75.7344 68.6914 75.9297 68.5352C76.125 68.3789 76.3398 68.2715 76.5742 68.2129C76.8086 68.1543 77.043 68.1641 77.2773 68.2422C77.6289 68.3203 77.9219 68.4961 78.1562 68.7695C78.3906 69.043 78.5078 69.375 78.5078 69.7656V84.1797C78.5078 85.1953 78.6934 86.1719 79.0645 87.1094C79.4355 88.0469 79.9531 88.9062 80.6172 89.6875C80.6562 89.7266 80.6855 89.7559 80.7051 89.7754C80.7246 89.7949 80.7539 89.8242 80.793 89.8633C81.1836 90.293 81.6035 90.7422 82.0527 91.2109C82.502 91.6797 82.9414 92.1484 83.3711 92.6172L84.543 93.8477C84.543 93.8867 84.543 93.9062 84.543 93.9062C85.0898 94.4531 85.5293 94.9023 85.8613 95.2539C86.1934 95.6055 86.3594 95.8008 86.3594 95.8398C86.5938 96.0742 86.877 96.1914 87.209 96.1914C87.541 96.1914 87.8242 96.0742 88.0586 95.8398C88.293 95.6445 88.4102 95.3809 88.4102 95.0488C88.4102 94.7168 88.293 94.4336 88.0586 94.1992C88.0586 94.1992 87.7656 93.8867 87.1797 93.2617C86.5938 92.6367 85.9102 91.8945 85.1289 91.0352L82.4336 88.2227C82.4336 88.1836 82.4336 88.1641 82.4336 88.1641C82.1211 87.8125 81.9648 87.3926 81.9648 86.9043C81.9648 86.416 82.1211 85.9766 82.4336 85.5859C82.7461 85.2734 83.1172 85.0879 83.5469 85.0293C83.9766 84.9707 84.3867 85.0586 84.7773 85.293L88.8789 88.0469C90.5195 89.1406 91.877 90.498 92.9512 92.1191C94.0254 93.7402 94.7578 95.5078 95.1484 97.4219L97.082 106.562C97.1602 106.836 97.3066 107.061 97.5215 107.236C97.7363 107.412 97.9805 107.5 98.2539 107.5C98.293 107.5 98.332 107.5 98.3711 107.5C98.4102 107.5 98.4492 107.5 98.4883 107.5C98.8008 107.422 99.0449 107.246 99.2207 106.973C99.3965 106.699 99.4453 106.406 99.3672 106.094ZM81.6719 99.7656C81.4766 99.4922 81.2227 99.3262 80.9102 99.2676C80.5977 99.209 80.3047 99.2773 80.0312 99.4727C79.7578 99.668 79.6016 99.9219 79.5625 100.234C79.5234 100.547 79.582 100.84 79.7383 101.113H79.7969C79.9141 101.27 80.0508 101.387 80.207 101.465C80.3633 101.543 80.5391 101.582 80.7344 101.582C80.8516 101.582 80.9688 101.562 81.0859 101.523C81.2031 101.484 81.3203 101.445 81.4375 101.406C81.6719 101.211 81.8184 100.947 81.877 100.615C81.9355 100.283 81.8672 100 81.6719 99.7656ZM131.535 66.7188C131.066 66.3281 130.539 66.0645 129.953 65.9277C129.367 65.791 128.801 65.8008 128.254 65.957C127.316 66.1523 126.564 66.6016 125.998 67.3047C125.432 68.0078 125.148 68.8281 125.148 69.7656V83.8867C124.484 83.1836 123.654 82.7832 122.658 82.6855C121.662 82.5879 120.754 82.8125 119.934 83.3594L115.832 86.1133C113.957 87.3633 112.385 88.9258 111.115 90.8008C109.846 92.6758 108.977 94.7266 108.508 96.9531L106.633 106.094C106.555 106.406 106.604 106.699 106.779 106.973C106.955 107.246 107.199 107.422 107.512 107.5C107.551 107.5 107.59 107.5 107.629 107.5C107.668 107.5 107.707 107.5 107.746 107.5C108.02 107.5 108.264 107.412 108.479 107.236C108.693 107.061 108.84 106.836 108.918 106.562L110.793 97.4219C111.223 95.5078 111.975 93.7402 113.049 92.1191C114.123 90.498 115.48 89.1406 117.121 88.0469L121.223 85.293C121.613 85.0586 122.023 84.9707 122.453 85.0293C122.883 85.0879 123.254 85.2734 123.566 85.5859C123.879 85.9766 124.035 86.416 124.035 86.9043C124.035 87.3926 123.879 87.8125 123.566 88.1641C123.566 88.1641 123.566 88.1836 123.566 88.2227C123.566 88.2227 122.629 89.2188 120.754 91.2109C118.879 93.2031 117.941 94.1992 117.941 94.1992C117.707 94.4336 117.59 94.7168 117.59 95.0488C117.59 95.3809 117.707 95.6445 117.941 95.8398C118.176 96.0742 118.459 96.1914 118.791 96.1914C119.123 96.1914 119.406 96.0742 119.641 95.8398C119.641 95.8008 120.471 94.9023 122.131 93.1445C123.791 91.3867 124.816 90.293 125.207 89.8633C125.246 89.8242 125.275 89.7949 125.295 89.7754C125.314 89.7559 125.344 89.7266 125.383 89.6875C126.047 88.9062 126.564 88.0469 126.936 87.1094C127.307 86.1719 127.492 85.1953 127.492 84.1797V69.7656C127.492 69.375 127.609 69.043 127.844 68.7695C128.078 68.4961 128.371 68.3203 128.723 68.2422C128.957 68.1641 129.191 68.1543 129.426 68.2129C129.66 68.2715 129.875 68.3789 130.07 68.5352C130.266 68.6914 130.412 68.877 130.51 69.0918C130.607 69.3066 130.656 69.5312 130.656 69.7656V87.9297C130.656 88.8672 130.51 89.7852 130.217 90.6836C129.924 91.582 129.504 92.4219 128.957 93.2031L120.109 105.625C119.953 105.898 119.895 106.201 119.934 106.533C119.973 106.865 120.129 107.109 120.402 107.266C120.52 107.344 120.637 107.402 120.754 107.441C120.871 107.48 120.988 107.5 121.105 107.5C121.262 107.5 121.428 107.461 121.604 107.383C121.779 107.305 121.926 107.188 122.043 107.031L130.891 94.5508C131.594 93.5742 132.121 92.5195 132.473 91.3867C132.824 90.2539 133 89.1016 133 87.9297V69.7656C133 69.1797 132.873 68.6133 132.619 68.0664C132.365 67.5195 132.004 67.0703 131.535 66.7188ZM117.824 69.9414L115.773 69.4727V69.0625C116.438 68.5938 116.975 67.9883 117.385 67.2461C117.795 66.5039 118 65.6836 118 64.7852V62.0898C118 60.6445 117.492 59.4043 116.477 58.3691C115.461 57.334 114.23 56.8164 112.785 56.8164C112.121 56.8164 111.496 56.9336 110.91 57.168C110.324 57.4023 109.797 57.7148 109.328 58.1055C108.82 56.8555 108 55.8301 106.867 55.0293C105.734 54.2285 104.445 53.8281 103 53.8281C101.594 53.8281 100.314 54.2285 99.1621 55.0293C98.0098 55.8301 97.1797 56.8555 96.6719 58.1055C96.2031 57.7148 95.6758 57.4023 95.0898 57.168C94.5039 56.9336 93.8984 56.8164 93.2734 56.8164C91.8281 56.8164 90.5879 57.334 89.5527 58.3691C88.5176 59.4043 88 60.6445 88 62.0898V64.7852C88 65.6836 88.2051 66.5039 88.6152 67.2461C89.0254 67.9883 89.582 68.5938 90.2852 69.0625V69.4727L88.1758 69.9414C86.9258 70.2539 85.9102 70.9082 85.1289 71.9043C84.3477 72.9004 83.957 74.043 83.957 75.332V77.5C83.957 77.8125 84.0645 78.0859 84.2793 78.3203C84.4941 78.5547 84.7773 78.6719 85.1289 78.6719H90.5195C90.5195 78.75 90.5098 78.8281 90.4902 78.9062C90.4707 78.9844 90.4609 79.043 90.4609 79.082V83.3008C90.4609 83.6523 90.5781 83.9355 90.8125 84.1504C91.0469 84.3652 91.3203 84.4727 91.6328 84.4727H98.7227C99.0352 84.4727 99.3086 84.3652 99.543 84.1504C99.7773 83.9355 99.8945 83.6523 99.8945 83.3008C99.8945 82.9883 99.7773 82.7148 99.543 82.4805C99.3086 82.2461 99.0352 82.1289 98.7227 82.1289H97.4922V79.7266C97.4922 79.4141 97.375 79.1406 97.1406 78.9062C96.9062 78.6719 96.6328 78.5547 96.3203 78.5547C96.0078 78.5547 95.7344 78.6719 95.5 78.9062C95.2656 79.1406 95.1484 79.4141 95.1484 79.7266V82.1289H92.8047V79.082C92.8047 77.9492 93.1562 76.9434 93.8594 76.0645C94.5625 75.1855 95.4609 74.6289 96.5547 74.3945L99.7773 73.5742L101.945 78.4961C102.023 78.6914 102.16 78.8574 102.355 78.9941C102.551 79.1309 102.766 79.1992 103 79.1992C103.234 79.1992 103.449 79.1309 103.645 78.9941C103.84 78.8574 103.977 78.6914 104.055 78.4961L106.223 73.6328L109.445 74.3945C110.539 74.6289 111.438 75.1953 112.141 76.0938C112.844 76.9922 113.195 77.9883 113.195 79.082V82.1289H110.852V79.7266C110.852 79.4141 110.734 79.1406 110.5 78.9062C110.266 78.6719 109.992 78.5547 109.68 78.5547C109.367 78.5547 109.094 78.6719 108.859 78.9062C108.625 79.1406 108.508 79.4141 108.508 79.7266V82.1289H107.16C106.848 82.1289 106.574 82.2461 106.34 82.4805C106.105 82.7148 105.988 82.9883 105.988 83.3008C105.988 83.6523 106.105 83.9355 106.34 84.1504C106.574 84.3652 106.848 84.4727 107.16 84.4727H114.367C114.68 84.4727 114.953 84.3652 115.188 84.1504C115.422 83.9355 115.539 83.6523 115.539 83.3008V79.082C115.539 79.043 115.529 78.9844 115.51 78.9062C115.49 78.8281 115.48 78.75 115.48 78.6719H120.871C121.223 78.6719 121.506 78.5547 121.721 78.3203C121.936 78.0859 122.043 77.8125 122.043 77.5V75.332C122.043 74.043 121.652 72.9004 120.871 71.9043C120.09 70.9082 119.074 70.2539 117.824 69.9414ZM112.785 59.1602C113.527 59.1602 114.182 59.4238 114.748 59.9512C115.314 60.4785 115.617 61.1328 115.656 61.9141H114.016C113.352 61.9141 112.688 61.8262 112.023 61.6504C111.359 61.4746 110.715 61.2305 110.09 60.918C110.324 60.4102 110.676 59.9902 111.145 59.6582C111.613 59.3262 112.16 59.1602 112.785 59.1602ZM109.855 64.6094C109.855 64.5703 109.855 64.541 109.855 64.5215C109.855 64.502 109.855 64.4727 109.855 64.4336V63.3789C110.52 63.6523 111.203 63.8672 111.906 64.0234C112.609 64.1797 113.312 64.2578 114.016 64.2578H115.656V64.7852C115.656 65.6055 115.373 66.2988 114.807 66.8652C114.24 67.4316 113.566 67.7148 112.785 67.7148C111.965 67.7148 111.271 67.4316 110.705 66.8652C110.139 66.2988 109.855 65.6055 109.855 64.7852V64.6094ZM98.4883 60.6836C98.4883 59.4336 98.9277 58.3691 99.8066 57.4902C100.686 56.6113 101.75 56.1719 103 56.1719C104.133 56.1719 105.119 56.5332 105.959 57.2559C106.799 57.9785 107.297 58.8867 107.453 59.9805L105.461 58.8086C105.227 58.6523 104.973 58.6035 104.699 58.6621C104.426 58.7207 104.191 58.8477 103.996 59.043C103.527 59.6289 102.951 60.0781 102.268 60.3906C101.584 60.7031 100.871 60.8594 100.129 60.8594H98.4883V60.6836ZM93.2734 59.1602C93.8594 59.1602 94.3867 59.3262 94.8555 59.6582C95.3242 59.9902 95.6758 60.4102 95.9102 60.918C95.3242 61.2305 94.6992 61.4746 94.0352 61.6504C93.3711 61.8262 92.6875 61.9141 91.9844 61.9141H90.3438C90.4219 61.1328 90.7344 60.4785 91.2812 59.9512C91.8281 59.4238 92.4922 59.1602 93.2734 59.1602ZM90.3438 64.2578H91.9844C92.7266 64.2578 93.4395 64.1797 94.123 64.0234C94.8066 63.8672 95.4805 63.6523 96.1445 63.3789V64.7852C96.1445 65.6055 95.8613 66.2988 95.2949 66.8652C94.7285 67.4316 94.0547 67.7148 93.2734 67.7148C92.4531 67.7148 91.7598 67.4316 91.1934 66.8652C90.627 66.2988 90.3438 65.6055 90.3438 64.7852V64.2578ZM96.0273 72.1094C94.8555 72.3828 93.8398 72.8906 92.9805 73.6328C92.1211 74.375 91.4766 75.2734 91.0469 76.3281H86.3008V75.332C86.3008 74.5898 86.5254 73.9355 86.9746 73.3691C87.4238 72.8027 88 72.4219 88.7031 72.2266L91.6914 71.5234C91.9648 71.4453 92.1895 71.3086 92.3652 71.1133C92.541 70.918 92.6289 70.6836 92.6289 70.4102V70C92.707 70 92.8047 70.0098 92.9219 70.0293C93.0391 70.0488 93.1562 70.0586 93.2734 70.0586C93.3906 70.0586 93.498 70.0488 93.5957 70.0293C93.6934 70.0098 93.8008 70 93.918 70V70.3516C93.918 70.5469 93.9668 70.7324 94.0645 70.9082C94.1621 71.084 94.2891 71.2305 94.4453 71.3477C94.5234 71.3867 94.5918 71.4258 94.6504 71.4648C94.709 71.5039 94.7773 71.5234 94.8555 71.5234L96.6133 71.9336L96.0273 72.1094ZM99.3086 70.293C99.1523 70.2148 98.9961 70.1465 98.8398 70.0879C98.6836 70.0293 98.5273 69.9805 98.3711 69.9414L96.2617 69.4727V69.0625C96.457 68.9453 96.6328 68.8086 96.7891 68.6523C96.9453 68.4961 97.1016 68.3398 97.2578 68.1836C97.5312 68.5742 97.834 68.9355 98.166 69.2676C98.498 69.5996 98.8789 69.9023 99.3086 70.1758V70.293ZM104.348 71.9922L103 75.0977L101.652 71.9922V71.1719C101.848 71.2109 102.062 71.2402 102.297 71.2598C102.531 71.2793 102.766 71.2891 103 71.2891C103.234 71.2891 103.469 71.2793 103.703 71.2598C103.938 71.2402 104.152 71.2109 104.348 71.1719V71.9922ZM103 68.9453C101.75 68.9453 100.686 68.5059 99.8066 67.627C98.9277 66.748 98.4883 65.6836 98.4883 64.4336V63.2031H100.129C101.066 63.2031 101.955 63.0371 102.795 62.7051C103.635 62.373 104.406 61.8945 105.109 61.2695L107.512 62.7344V64.6094C107.473 65.8203 107.014 66.8457 106.135 67.6855C105.256 68.5254 104.211 68.9453 103 68.9453ZM106.691 70.293V70.1758C107.121 69.9414 107.502 69.6484 107.834 69.2969C108.166 68.9453 108.469 68.5742 108.742 68.1836C108.898 68.3398 109.064 68.4961 109.24 68.6523C109.416 68.8086 109.582 68.9453 109.738 69.0625V69.4727L107.688 69.9414C107.492 69.9805 107.316 70.0293 107.16 70.0879C107.004 70.1465 106.848 70.2148 106.691 70.293ZM119.699 76.3281H114.953C114.523 75.2734 113.879 74.375 113.02 73.6328C112.16 72.8906 111.145 72.3828 109.973 72.1094L109.387 71.9336L111.145 71.5234C111.223 71.5234 111.301 71.5039 111.379 71.4648C111.457 71.4258 111.516 71.3867 111.555 71.3477C111.75 71.2305 111.887 71.084 111.965 70.9082C112.043 70.7324 112.082 70.5469 112.082 70.3516V70C112.199 70 112.316 70.0098 112.434 70.0293C112.551 70.0488 112.668 70.0586 112.785 70.0586C112.863 70.0586 112.961 70.0488 113.078 70.0293C113.195 70.0098 113.312 70 113.43 70V70.4102C113.43 70.6836 113.508 70.918 113.664 71.1133C113.82 71.3086 114.035 71.4453 114.309 71.5234L117.297 72.2266C118 72.4219 118.576 72.8027 119.025 73.3691C119.475 73.9355 119.699 74.5898 119.699 75.332V76.3281ZM103.82 82.4805C103.703 82.3633 103.576 82.2754 103.439 82.2168C103.303 82.1582 103.156 82.1289 103 82.1289C102.844 82.1289 102.697 82.1582 102.561 82.2168C102.424 82.2754 102.297 82.3633 102.18 82.4805C102.062 82.5977 101.975 82.7246 101.916 82.8613C101.857 82.998 101.828 83.1445 101.828 83.3008C101.828 83.457 101.857 83.6133 101.916 83.7695C101.975 83.9258 102.062 84.043 102.18 84.1211C102.297 84.2383 102.424 84.3262 102.561 84.3848C102.697 84.4434 102.844 84.4727 103 84.4727C103.156 84.4727 103.303 84.4434 103.439 84.3848C103.576 84.3262 103.703 84.2383 103.82 84.1211C103.938 84.043 104.025 83.9258 104.084 83.7695C104.143 83.6133 104.172 83.457 104.172 83.3008C104.172 83.1445 104.143 82.998 104.084 82.8613C104.025 82.7246 103.938 82.5977 103.82 82.4805ZM103 47.5C102.688 47.5 102.414 47.6172 102.18 47.8516C101.945 48.0859 101.828 48.3594 101.828 48.6719V50.4297C101.828 50.7422 101.945 51.0156 102.18 51.25C102.414 51.4844 102.688 51.6016 103 51.6016C103.312 51.6016 103.586 51.4844 103.82 51.25C104.055 51.0156 104.172 50.7422 104.172 50.4297V48.6719C104.172 48.3594 104.055 48.0859 103.82 47.8516C103.586 47.6172 103.312 47.5 103 47.5ZM98.6641 51.3086L97.4336 50.0781C97.1992 49.8438 96.9258 49.7266 96.6133 49.7266C96.3008 49.7266 96.0273 49.8438 95.793 50.0781C95.5586 50.3125 95.4414 50.5957 95.4414 50.9277C95.4414 51.2598 95.5586 51.543 95.793 51.7773L97.0234 53.0078C97.1406 53.0859 97.2676 53.1543 97.4043 53.2129C97.541 53.2715 97.6875 53.3008 97.8438 53.3008C98 53.3008 98.1465 53.2715 98.2832 53.2129C98.4199 53.1543 98.5469 53.0859 98.6641 53.0078C98.8984 52.7734 99.0156 52.4902 99.0156 52.1582C99.0156 51.8262 98.8984 51.543 98.6641 51.3086ZM110.148 50.1367C109.953 49.9023 109.689 49.7852 109.357 49.7852C109.025 49.7852 108.742 49.9023 108.508 50.1367L107.277 51.3672C107.043 51.6016 106.926 51.875 106.926 52.1875C106.926 52.5 107.043 52.7734 107.277 53.0078C107.395 53.125 107.531 53.2129 107.688 53.2715C107.844 53.3301 107.98 53.3594 108.098 53.3594C108.254 53.3594 108.41 53.3301 108.566 53.2715C108.723 53.2129 108.859 53.125 108.977 53.0078L110.148 51.7773C110.383 51.543 110.5 51.2695 110.5 50.957C110.5 50.6445 110.383 50.3711 110.148 50.1367Z" fill="#1F406C"/>
</g>
</g>
<defs>
<clipPath id="clip0_14_325">
<rect width="206" height="155" fill="white"/>
</clipPath>
<clipPath id="clip1_14_325">
<rect width="60" height="60" fill="white" transform="matrix(1 0 0 -1 73 107.5)"/>
</clipPath>
</defs>
</svg>
