<svg width="206" height="155" viewBox="0 0 206 155" fill="none" xmlns="http://www.w3.org/2000/svg">
<mask id="mask0_14_336" style="mask-type:alpha" maskUnits="userSpaceOnUse" x="0" y="0" width="206" height="155">
<g clip-path="url(#clip0_14_336)">
<path d="M44.0605 57.1184V47.6555C44.0605 47.6555 44.0605 44.016 48.4353 41.8322L97.2056 12.7156C97.2056 12.7156 102.301 10.823 106.669 12.7156L159.086 42.5601C159.086 42.5601 162.434 44.7439 161.997 49.1114V105.889C161.997 105.889 161.124 110.547 157.63 112.44L107.396 142.285C107.396 142.285 106.377 144.177 98.6615 143.012L46.2443 112.44C46.2443 112.44 44.3517 111.421 44.0605 105.889V57.1184Z" fill="black"/>
</g>
</mask>
<g mask="url(#mask0_14_336)">
<rect width="206" height="155" fill="#ECF2FC"/>
<path d="M114.074 106.562H81.7891C80.6562 106.562 79.6992 106.162 78.918 105.361C78.1367 104.561 77.7461 103.613 77.7461 102.52V57.6367C77.7461 56.543 78.1367 55.5957 78.918 54.7949C79.6992 53.9941 80.6562 53.5938 81.7891 53.5938H84.7773C85.0508 53.5938 85.2754 53.6914 85.4512 53.8867C85.627 54.082 85.7148 54.2969 85.7148 54.5312C85.7148 54.8047 85.627 55.0293 85.4512 55.2051C85.2754 55.3809 85.0508 55.4688 84.7773 55.4688H81.7891C81.2031 55.4688 80.6953 55.6836 80.2656 56.1133C79.8359 56.543 79.6211 57.0508 79.6211 57.6367V102.52C79.6211 103.105 79.8359 103.613 80.2656 104.043C80.6953 104.473 81.2031 104.688 81.7891 104.688H114.074C114.66 104.688 115.168 104.473 115.598 104.043C116.027 103.613 116.242 103.105 116.242 102.52V57.6367C116.242 57.0508 116.027 56.543 115.598 56.1133C115.168 55.6836 114.66 55.4688 114.074 55.4688H111.086C110.812 55.4688 110.588 55.3809 110.412 55.2051C110.236 55.0293 110.148 54.8047 110.148 54.5312C110.148 54.2969 110.236 54.082 110.412 53.8867C110.588 53.6914 110.812 53.5938 111.086 53.5938H114.074C115.168 53.5938 116.115 53.9941 116.916 54.7949C117.717 55.5957 118.117 56.543 118.117 57.6367V102.52C118.117 103.613 117.717 104.561 116.916 105.361C116.115 106.162 115.168 106.562 114.074 106.562ZM106.281 55.4688H100.305C100.031 55.4688 99.8066 55.3809 99.6309 55.2051C99.4551 55.0293 99.3672 54.8047 99.3672 54.5312C99.3672 54.2969 99.4551 54.082 99.6309 53.8867C99.8066 53.6914 100.031 53.5938 100.305 53.5938H106.281C106.555 53.5938 106.779 53.6914 106.955 53.8867C107.131 54.082 107.219 54.2969 107.219 54.5312C107.219 54.8047 107.131 55.0293 106.955 55.2051C106.779 55.3809 106.555 55.4688 106.281 55.4688ZM95.5586 55.4688H89.5234C89.2891 55.4688 89.0742 55.3809 88.8789 55.2051C88.6836 55.0293 88.5859 54.8047 88.5859 54.5312C88.5859 54.2969 88.6836 54.082 88.8789 53.8867C89.0742 53.6914 89.2891 53.5938 89.5234 53.5938H95.5586C95.793 53.5938 96.0078 53.6914 96.2031 53.8867C96.3984 54.082 96.4961 54.2969 96.4961 54.5312C96.4961 54.8047 96.3984 55.0293 96.2031 55.2051C96.0078 55.3809 95.793 55.4688 95.5586 55.4688ZM108.742 89.5117H87.1211C86.8477 89.5117 86.623 89.4238 86.4473 89.248C86.2715 89.0723 86.1836 88.8477 86.1836 88.5742C86.1836 88.3398 86.2715 88.125 86.4473 87.9297C86.623 87.7344 86.8477 87.6367 87.1211 87.6367H108.742C109.016 87.6367 109.24 87.7344 109.416 87.9297C109.592 88.125 109.68 88.3398 109.68 88.5742C109.68 88.8477 109.592 89.0723 109.416 89.248C109.24 89.4238 109.016 89.5117 108.742 89.5117ZM108.742 96.8359H87.1211C86.8477 96.8359 86.623 96.7383 86.4473 96.543C86.2715 96.3477 86.1836 96.1328 86.1836 95.8984C86.1836 95.625 86.2715 95.4004 86.4473 95.2246C86.623 95.0488 86.8477 94.9609 87.1211 94.9609H108.742C109.016 94.9609 109.24 95.0488 109.416 95.2246C109.592 95.4004 109.68 95.625 109.68 95.8984C109.68 96.1328 109.592 96.3477 109.416 96.543C109.24 96.7383 109.016 96.8359 108.742 96.8359ZM87.5898 61.4453H86.7109C85.9297 61.4453 85.2559 61.1621 84.6895 60.5957C84.123 60.0293 83.8398 59.3555 83.8398 58.5742V51.3086C83.8398 50.5273 84.123 49.8535 84.6895 49.2871C85.2559 48.7207 85.9297 48.4375 86.7109 48.4375H87.5898C88.3711 48.4375 89.0449 48.7207 89.6113 49.2871C90.1777 49.8535 90.4609 50.5273 90.4609 51.3086V58.5742C90.4609 59.3555 90.1777 60.0293 89.6113 60.5957C89.0449 61.1621 88.3711 61.4453 87.5898 61.4453ZM86.7109 50.3125C86.4375 50.3125 86.2031 50.4102 86.0078 50.6055C85.8125 50.8008 85.7148 51.0352 85.7148 51.3086V58.5742C85.7148 58.8477 85.8125 59.082 86.0078 59.2773C86.2031 59.4727 86.4375 59.5703 86.7109 59.5703H87.5898C87.8633 59.5703 88.0977 59.4727 88.293 59.2773C88.4883 59.082 88.5859 58.8477 88.5859 58.5742V51.3086C88.5859 51.0352 88.4883 50.8008 88.293 50.6055C88.0977 50.4102 87.8633 50.3125 87.5898 50.3125H86.7109ZM98.3711 61.4453H97.4922C96.7109 61.4453 96.0371 61.1621 95.4707 60.5957C94.9043 60.0293 94.6211 59.3555 94.6211 58.5742V51.3086C94.6211 50.5273 94.9043 49.8535 95.4707 49.2871C96.0371 48.7207 96.7109 48.4375 97.4922 48.4375H98.3711C99.1523 48.4375 99.8262 48.7207 100.393 49.2871C100.959 49.8535 101.242 50.5273 101.242 51.3086V58.5742C101.242 59.3555 100.959 60.0293 100.393 60.5957C99.8262 61.1621 99.1523 61.4453 98.3711 61.4453ZM97.4922 50.3125C97.2188 50.3125 96.9844 50.4102 96.7891 50.6055C96.5938 50.8008 96.4961 51.0352 96.4961 51.3086V58.5742C96.4961 58.8477 96.5938 59.082 96.7891 59.2773C96.9844 59.4727 97.2188 59.5703 97.4922 59.5703H98.3711C98.6445 59.5703 98.8789 59.4727 99.0742 59.2773C99.2695 59.082 99.3672 58.8477 99.3672 58.5742V51.3086C99.3672 51.0352 99.2695 50.8008 99.0742 50.6055C98.8789 50.4102 98.6445 50.3125 98.3711 50.3125H97.4922ZM109.094 61.4453H108.273C107.453 61.4453 106.76 61.1621 106.193 60.5957C105.627 60.0293 105.344 59.3555 105.344 58.5742V51.3086C105.344 50.5273 105.627 49.8535 106.193 49.2871C106.76 48.7207 107.453 48.4375 108.273 48.4375H109.094C109.914 48.4375 110.607 48.7207 111.174 49.2871C111.74 49.8535 112.023 50.5273 112.023 51.3086V58.5742C112.023 59.3555 111.74 60.0293 111.174 60.5957C110.607 61.1621 109.914 61.4453 109.094 61.4453ZM108.273 50.3125C107.961 50.3125 107.707 50.4102 107.512 50.6055C107.316 50.8008 107.219 51.0352 107.219 51.3086V58.5742C107.219 58.8477 107.316 59.082 107.512 59.2773C107.707 59.4727 107.961 59.5703 108.273 59.5703H109.094C109.367 59.5703 109.611 59.4727 109.826 59.2773C110.041 59.082 110.148 58.8477 110.148 58.5742V51.3086C110.148 51.0352 110.041 50.8008 109.826 50.6055C109.611 50.4102 109.367 50.3125 109.094 50.3125H108.273ZM107.336 78.3789H88.4688C88.2344 78.3789 88.0195 78.291 87.8242 78.1152C87.6289 77.9395 87.5312 77.7148 87.5312 77.4414V68.8867C87.5312 68.6133 87.6289 68.3887 87.8242 68.2129C88.0195 68.0371 88.2344 67.9492 88.4688 67.9492H107.336C107.609 67.9492 107.834 68.0371 108.01 68.2129C108.186 68.3887 108.273 68.6133 108.273 68.8867V77.4414C108.273 77.7148 108.186 77.9395 108.01 78.1152C107.834 78.291 107.609 78.3789 107.336 78.3789ZM89.4062 76.5039H106.398V69.8242H89.4062V76.5039ZM123.977 106.562C123.234 106.562 122.521 106.436 121.838 106.182C121.154 105.928 120.539 105.586 119.992 105.156C119.914 105.078 119.836 104.98 119.758 104.863C119.68 104.746 119.641 104.609 119.641 104.453V69.0625C119.641 68.9844 119.65 68.916 119.67 68.8574C119.689 68.7988 119.719 68.75 119.758 68.7109L123.098 61.0352C123.176 60.8789 123.293 60.752 123.449 60.6543C123.605 60.5566 123.781 60.5078 123.977 60.5078C124.172 60.5078 124.338 60.5566 124.475 60.6543C124.611 60.752 124.719 60.8789 124.797 61.0352L128.195 68.7109C128.195 68.75 128.205 68.7988 128.225 68.8574C128.244 68.916 128.254 68.9844 128.254 69.0625V104.453C128.254 104.609 128.225 104.746 128.166 104.863C128.107 104.98 128.02 105.078 127.902 105.156C127.355 105.586 126.75 105.928 126.086 106.182C125.422 106.436 124.719 106.562 123.977 106.562ZM121.516 103.984C121.867 104.219 122.248 104.395 122.658 104.512C123.068 104.629 123.508 104.688 123.977 104.688C124.406 104.688 124.826 104.629 125.236 104.512C125.646 104.395 126.027 104.219 126.379 103.984V69.2969L123.977 63.7305L121.516 69.2969V103.984ZM127.082 70H120.578C120.344 70 120.129 69.9121 119.934 69.7363C119.738 69.5605 119.641 69.3359 119.641 69.0625C119.641 68.8281 119.738 68.6133 119.934 68.418C120.129 68.2227 120.344 68.125 120.578 68.125H127.082C127.355 68.125 127.58 68.2227 127.756 68.418C127.932 68.6133 128.02 68.8281 128.02 69.0625C128.02 69.3359 127.932 69.5605 127.756 69.7363C127.58 69.9121 127.355 70 127.082 70ZM127.316 100.41H120.578C120.344 100.41 120.129 100.322 119.934 100.146C119.738 99.9707 119.641 99.7461 119.641 99.4727C119.641 99.2383 119.738 99.0234 119.934 98.8281C120.129 98.6328 120.344 98.5352 120.578 98.5352H127.316C127.59 98.5352 127.814 98.6328 127.99 98.8281C128.166 99.0234 128.254 99.2383 128.254 99.4727C128.254 99.7461 128.166 99.9707 127.99 100.146C127.814 100.322 127.59 100.41 127.316 100.41Z" fill="#1F406C"/>
</g>
<defs>
<clipPath id="clip0_14_336">
<rect width="206" height="155" fill="white"/>
</clipPath>
</defs>
</svg>
